# xmcd CD database file
#
# Track frame offsets:
#	150
#	42906
#	90462
#	115254
#	140235
#	182427
#	218620
#
# Disc length: 3415 seconds
#
# Revision: 0
# Processed by: cddbd v1.5.2PL0 Copyright (c) Steve Scherf et al.
# Submitted via: CDex 1.51
#
DISCID=5b0d5507
DTITLE=Runestone - The Raven And The Moon
DYEAR=2008
DGENRE=New Age
TTITLE0=The Sword And The Rose
TTITLE1=Spellbooks And Candles
TTITLE2=Of Honey And Mead
TTITLE3=Wildwood Night
TTITLE4=The Mirror And The Veil
TTITLE5=The Raven And The Moon
TTITLE6=The Magician And The Fool
EXTD=YEAR: 2008
EXTT0=
EXTT1=
EXTT2=
EXTT3=
EXTT4=
EXTT5=
EXTT6=
PLAYORDER=
